# Blender v3.1.2 OBJ File: ''
# www.blender.org
mtllib ground_bumpy.mtl
o ground_bumpy.001
v 1.000000 0.000000 -1.000000
v 1.000000 -0.000000 1.000000
v -0.578524 0.054989 -0.157048
v -0.645646 0.072208 0.177177
v -0.333333 -0.000000 0.333333
v -0.177177 -0.000000 0.177177
v -0.578524 -0.000000 0.578524
v -0.177177 0.079214 0.645646
v 0.157048 -0.000000 0.578524
v -1.000000 0.088413 -0.500000
v -0.500000 -0.113493 -0.500000
v -1.000000 0.000000 0.000000
v 0.000000 0.000000 0.000000
v -1.000000 -0.000000 1.000000
v -0.500000 0.088413 1.000000
v 0.000000 -0.000000 1.000000
v 0.500000 0.134353 0.500000
v 0.500000 0.088413 1.000000
v 0.578524 -0.000000 0.157048
v 0.645646 0.113714 -0.177177
v 0.333333 0.000000 -0.333333
v 0.177177 0.000000 -0.177177
v 0.578524 -0.067425 -0.578524
v 0.177177 -0.094945 -0.645646
v -0.157048 0.050186 -0.578524
v 1.000000 0.088413 0.500000
v 1.000000 0.000000 0.000000
v 1.000000 0.088413 -0.500000
v -0.500000 0.088413 -1.000000
v 0.000000 -0.000000 -1.000000
v 0.500000 0.088413 -1.000000
v -1.000000 0.088413 0.500000
v -1.000000 -0.000000 -1.000000
vt 0.421476 0.210738
vt 0.588589 0.177177
vt 0.666667 0.333333
vt 0.588589 0.411412
vt 0.789262 0.210738
vt 0.822823 0.411411
vt 0.789262 0.578524
vt 0.000000 0.000000
vt 0.250000 0.000000
vt 0.250000 0.250000
vt 0.500000 0.000000
vt 0.500000 0.500000
vt 1.000000 0.000000
vt 1.000000 0.250000
vt 0.750000 0.000000
vt 1.000000 0.500000
vt 1.000000 1.000000
vt 0.750000 0.750000
vt 1.000000 0.750000
vt 0.578524 0.789262
vt 0.411411 0.822823
vt 0.333333 0.666667
vt 0.411412 0.588589
vt 0.210738 0.789262
vt 0.177177 0.588589
vt 0.210738 0.421476
vt 0.750000 1.000000
vt 0.500000 1.000000
vt 0.000000 1.000000
vt 0.000000 0.750000
vt 0.250000 1.000000
vt 0.000000 0.500000
vt 0.000000 0.250000
vn 0.1872 0.9794 -0.0759
vn -0.0156 0.9964 0.0836
vn 0.0697 0.9966 -0.0435
vn 0.0385 0.9961 -0.0787
vn 0.0067 0.9998 -0.0192
vn 0.0855 0.9902 -0.1103
vn -0.0290 0.9995 0.0130
vn -0.3140 0.9068 -0.2813
vn -0.1257 0.9854 0.1151
vn 0.0473 0.9981 -0.0389
vn -0.0614 0.9970 -0.0462
vn -0.0612 0.9960 -0.0644
vn 0.1294 0.9859 -0.1065
vn -0.1842 0.9525 0.2427
vn 0.0807 0.9967 -0.0037
vn 0.0271 0.9996 -0.0090
vn -0.0661 0.9901 0.1240
vn -0.0013 0.9997 -0.0227
vn 0.0086 0.9993 -0.0361
vn -0.0288 0.9901 -0.1375
vn -0.0871 0.9952 -0.0452
vn -0.0449 0.9854 -0.1645
vn -0.0560 0.9976 -0.0396
vn -0.2428 0.9701 -0.0063
vn 0.2214 0.9721 -0.0774
vn 0.1377 0.9854 0.1001
vn -0.0430 0.9985 -0.0341
vn 0.0510 0.9977 -0.0436
vn 0.0762 0.9857 0.1500
vn -0.1496 0.9646 0.2170
vn -0.0255 0.9993 0.0258
vn -0.1722 0.9845 -0.0321
usemtl Default_OBJ
s 1
f 3/1/1 4/2/2 5/3/3 6/4/4
f 7/5/5 8/6/6 5/3/3 4/2/2
f 9/7/7 6/4/4 5/3/3 8/6/6
f 33/8/8 10/9/9 3/1/1 11/10/10
f 10/9/9 12/11/11 4/2/2 3/1/1
f 11/10/10 3/1/1 6/4/4 13/12/12
f 14/13/13 15/14/14 7/5/5 32/15/15
f 15/14/14 16/16/16 8/6/6 7/5/5
f 32/15/15 7/5/5 4/2/2 12/11/11
f 2/17/17 17/18/18 9/7/7 18/19/19
f 17/18/18 13/12/12 6/4/4 9/7/7
f 18/19/19 9/7/7 8/6/6 16/16/16
f 19/20/20 20/21/21 21/22/22 22/23/23
f 23/24/24 24/25/25 21/22/22 20/21/21
f 25/26/26 22/23/23 21/22/22 24/25/25
f 26/27/15 19/20/20 17/18/18
f 26/27/15 27/28/27 20/21/21 19/20/20
f 17/18/18 19/20/20 22/23/23 13/12/12
f 1/29/28 31/30/29 23/24/24 28/31/30
f 31/30/29 30/32/31 24/25/25 23/24/24
f 28/31/30 23/24/24 20/21/21 27/28/27
f 33/8/8 11/10/10 25/26/26 29/33/32
f 11/10/10 13/12/12 22/23/23 25/26/26
f 29/33/32 25/26/26 24/25/25 30/32/31
f 2/17/17 26/27/15 17/18/18
o ground_bumpy.004_ground_bumpy.011
v 1.000000 0.000000 -1.000000
v 1.000000 -0.000000 1.000000
v -0.578524 0.054989 -0.157048
v -0.645646 0.072208 0.177177
v -0.333333 -0.000000 0.333333
v -0.177177 -0.000000 0.177177
v -0.578524 -0.000000 0.578524
v -0.177177 0.079214 0.645646
v 0.157048 -0.000000 0.578524
v -1.000000 0.088413 -0.500000
v -0.500000 -0.113493 -0.500000
v -1.000000 0.000000 0.000000
v 0.000000 0.000000 0.000000
v -1.000000 -0.000000 1.000000
v -0.500000 0.088413 1.000000
v 0.000000 -0.000000 1.000000
v 0.500000 0.134353 0.500000
v 0.500000 0.088413 1.000000
v 0.578524 -0.000000 0.157048
v 0.645646 0.113714 -0.177177
v 0.333333 0.000000 -0.333333
v 0.177177 0.000000 -0.177177
v 0.578524 -0.067425 -0.578524
v 0.177177 -0.094945 -0.645646
v -0.157048 0.050186 -0.578524
v 1.000000 0.088413 0.500000
v 1.000000 0.000000 0.000000
v 1.000000 0.088413 -0.500000
v -0.500000 0.088413 -1.000000
v 0.000000 -0.000000 -1.000000
v 0.500000 0.088413 -1.000000
v -1.000000 0.088413 0.500000
v -1.000000 -0.000000 -1.000000
vt 0.421476 0.210738
vt 0.588589 0.177177
vt 0.666667 0.333333
vt 0.588589 0.411412
vt 0.789262 0.210738
vt 0.822823 0.411411
vt 0.789262 0.578524
vt 0.000000 0.000000
vt 0.250000 0.000000
vt 0.250000 0.250000
vt 0.500000 0.000000
vt 0.500000 0.500000
vt 1.000000 0.000000
vt 1.000000 0.250000
vt 0.750000 0.000000
vt 1.000000 0.500000
vt 1.000000 1.000000
vt 0.750000 0.750000
vt 1.000000 0.750000
vt 0.578524 0.789262
vt 0.411411 0.822823
vt 0.333333 0.666667
vt 0.411412 0.588589
vt 0.210738 0.789262
vt 0.177177 0.588589
vt 0.210738 0.421476
vt 0.750000 1.000000
vt 0.500000 1.000000
vt 0.000000 1.000000
vt 0.000000 0.750000
vt 0.250000 1.000000
vt 0.000000 0.500000
vt 0.000000 0.250000
vn 0.1872 0.9794 -0.0759
vn -0.0156 0.9964 0.0836
vn 0.0697 0.9966 -0.0435
vn 0.0385 0.9961 -0.0787
vn 0.0067 0.9998 -0.0192
vn 0.0855 0.9902 -0.1103
vn -0.0290 0.9995 0.0130
vn -0.3140 0.9068 -0.2813
vn -0.1257 0.9854 0.1151
vn 0.0473 0.9981 -0.0389
vn -0.0614 0.9970 -0.0462
vn -0.0612 0.9960 -0.0644
vn 0.1294 0.9859 -0.1065
vn -0.1842 0.9525 0.2427
vn 0.0807 0.9967 -0.0037
vn 0.0271 0.9996 -0.0090
vn -0.0661 0.9901 0.1240
vn -0.0013 0.9997 -0.0227
vn 0.0086 0.9993 -0.0361
vn -0.0288 0.9901 -0.1375
vn -0.0871 0.9952 -0.0452
vn -0.0449 0.9854 -0.1645
vn -0.0560 0.9976 -0.0396
vn -0.2428 0.9701 -0.0063
vn 0.2214 0.9721 -0.0774
vn 0.1377 0.9854 0.1001
vn -0.0430 0.9985 -0.0341
vn 0.0510 0.9977 -0.0436
vn 0.0762 0.9857 0.1500
vn -0.1496 0.9646 0.2170
vn -0.0255 0.9993 0.0258
vn -0.1722 0.9845 -0.0321
usemtl Default_OBJ
s 1
f 36/34/33 37/35/34 38/36/35 39/37/36
f 40/38/37 41/39/38 38/36/35 37/35/34
f 42/40/39 39/37/36 38/36/35 41/39/38
f 66/41/40 43/42/41 36/34/33 44/43/42
f 43/42/41 45/44/43 37/35/34 36/34/33
f 44/43/42 36/34/33 39/37/36 46/45/44
f 47/46/45 48/47/46 40/38/37 65/48/47
f 48/47/46 49/49/48 41/39/38 40/38/37
f 65/48/47 40/38/37 37/35/34 45/44/43
f 35/50/49 50/51/50 42/40/39 51/52/51
f 50/51/50 46/45/44 39/37/36 42/40/39
f 51/52/51 42/40/39 41/39/38 49/49/48
f 52/53/52 53/54/53 54/55/54 55/56/55
f 56/57/56 57/58/57 54/55/54 53/54/53
f 58/59/58 55/56/55 54/55/54 57/58/57
f 59/60/47 52/53/52 50/51/50
f 59/60/47 60/61/59 53/54/53 52/53/52
f 50/51/50 52/53/52 55/56/55 46/45/44
f 34/62/60 64/63/61 56/57/56 61/64/62
f 64/63/61 63/65/63 57/58/57 56/57/56
f 61/64/62 56/57/56 53/54/53 60/61/59
f 66/41/40 44/43/42 58/59/58 62/66/64
f 44/43/42 46/45/44 55/56/55 58/59/58
f 62/66/64 58/59/58 57/58/57 63/65/63
f 35/50/49 59/60/47 50/51/50
